<?xml version="1.0" encoding="UTF-8"?>
<svg version="1.1" viewBox="0 0 1600 1248" width="1280" height="1280" xmlns="http://www.w3.org/2000/svg">
<path transform="translate(0)" d="m0 0h1600v1248h-1600v-1248z" fill="#000002"/>
<path transform="translate(335 551)" d="m0 0c0.441 0.431 0.882 0.861 1.34 1.3v2c0.586 0.262 1.17 0.524 1.78 0.793 2.35 1.27 3.91 2.63 5.8 4.52 0.663 0.659 1.33 1.32 2.01 2 1.04 1.06 1.04 1.06 2.1 2.13 0.718 0.725 1.44 1.45 2.17 2.2 9.74 9.93 17.7 20.7 25.1 32.4 0.851 1.33 0.851 1.33 1.72 2.69 18.9 30.6 27.5 65 27.5 101 0.00134 0.849 0.00268 1.7 0.00406 2.57-0.00421 12.3-0.604 24-3.25 36-0.307 1.86-0.307 1.86-0.621 3.75-4.81 28.2-18.9 54.9-36.4 77.2-0.615 0.787-0.615 0.787-1.24 1.59-5.34 6.82-5.34 6.82-7.76 9.41h-2c-0.236 0.558-0.472 1.12-0.715 1.69-6.13 11-19.3 19.1-29.3 26.3-0.645 0.469-1.29 0.937-1.96 1.42-9.48 6.81-19.4 11.9-30 16.6-1.04 0.46-2.08 0.92-3.14 1.39-24.9 10.7-49.4 15-76.4 15-0.976-5.44e-4 -1.95-0.00109-2.96-0.00165-14.2-0.0364-27.7-0.599-41.5-4.37-0.891-0.23-1.78-0.461-2.7-0.698-28.1-7.3-54-19.5-76.3-38.3-1.6-1.24-3.2-2.46-4.81-3.69-5.71-4.44-10.4-9.59-15.1-15-1.46-1.61-2.97-3.18-4.52-4.71-30-30.4-46.4-77.7-46.9-120-0.029-0.837-0.058-1.67-0.0879-2.54-0.0602-5.94 1.08-10.3 4.4-15.3 3.78-3.78 8.54-6.83 14-7.1 4.89 0.392 8.18 1.9 12 5.1 4.31 5.16 4.74 9.55 5.12 16 0.146 1.88 0.294 3.77 0.445 5.65 0.0699 0.915 0.14 1.83 0.212 2.77 0.383 4.52 1.04 8.99 1.74 13.5 0.305 1.97 0.577 3.94 0.805 5.91 4.49 34.7 27.1 68.7 53.7 90.7 6.41 4.89 13.1 9.32 20 13.5 0.98 0.598 1.96 1.2 2.97 1.81 20.6 12.3 45 20.2 69.2 20.4 0.769 0.0057 1.54 0.0114 2.33 0.0173 1.62 0.0094 3.25 0.016 4.87 0.0198 2.42 0.00959 4.84 0.0406 7.26 0.0723 34.6 0.236 73.9-12.3 99.1-36.9 0.768-0.788 1.54-1.58 2.33-2.39 0.949-0.763 1.9-1.53 2.88-2.31 3.85-3.18 6.95-6.86 10.1-10.7 0.436-0.513 0.872-1.03 1.32-1.56 29.4-34.7 39.6-76.4 36.5-121-3.36-33-18.3-65.3-41.2-89.2-1.62-1.89-1.62-1.89-1.62-3.89-0.639-0.268-1.28-0.536-1.94-0.812-2.06-1.19-2.06-1.19-3.06-4.19-1.32-0.69-2.66-1.35-4-2-1.53-1.34-3.03-2.72-4.5-4.12-5.45-4.98-11.2-8.99-17.5-12.9-1.07-0.67-2.14-1.34-3.24-2.03-13.7-8.21-28.3-13.2-43.8-17-1.35-0.375-2.71-0.75-4.06-1.12-1.31-0.309-2.62-0.599-3.94-0.875-0.883-0.186-1.77-0.371-2.68-0.562-37.9-6.66-79.1 2.85-111 23.8-1.73 1.23-3.44 2.48-5.12 3.75-0.813 0.606-1.63 1.21-2.46 1.84-3.6 2.75-7.07 5.61-10.5 8.6-3.06 2.56-3.06 2.56-5.06 2.56-0.268 0.639-0.536 1.28-0.812 1.94-1.19 2.06-1.19 2.06-4.19 3.06v5c0.564-0.0157 1.13-0.0314 1.71-0.0476 2.6-0.063 5.19-0.102 7.79-0.14 0.887-0.0251 1.77-0.0503 2.69-0.0762 6.69-0.0738 12.8 0.367 17.9 5.24 0.455 0.69 0.91 1.38 1.38 2.09 0.473 0.692 0.946 1.38 1.43 2.1 2.91 4.74 2.56 9.38 2.13 14.8-1.73 4.18-4.65 6.99-8 10-3.55 1.18-6.43 1.16-10.2 1.21-0.727 0.00978-1.45 0.0196-2.2 0.0296-2.41 0.0299-4.82 0.0513-7.22 0.0702-0.824 0.00657-1.65 0.0131-2.5 0.0199-4.37 0.0326-8.74 0.057-13.1 0.0765-3.6 0.0178-7.21 0.0526-10.8 0.103-4.36 0.0604-8.72 0.091-13.1 0.101-1.66 0.00852-3.31 0.0273-4.97 0.0567-15.6 0.263-15.6 0.263-22.4-5.08-5.15-5.28-5.67-11.8-5.71-18.8-0.00961-1.23-0.0192-2.46-0.0291-3.73-0.00485-1.34-0.00913-2.67-0.0129-4.01-0.00283-0.679-0.00565-1.36-0.00857-2.06-0.015-3.6-0.0242-7.19-0.0285-10.8-0.00547-3.69-0.0295-7.39-0.058-11.1-0.0187-2.86-0.0238-5.72-0.0254-8.58-0.00445-2.02-0.023-4.03-0.042-6.05 0.0231-9.6 0.818-17.8 7.64-25.1 4.31-3.61 8.79-4.74 14.4-4.45 4.77 0.757 7.06 2.53 10.4 6 4.72 6.52 4.28 13.9 4.61 21.7 0.0889 4.3 0.0889 4.3 1.39 8.33 0.629-0.58 1.26-1.16 1.91-1.76 4.61-4.21 9.21-8.25 14.3-11.9 1.88-1.4 1.88-1.4 3.72-3.33 23.6-23.5 60.2-35.5 92.1-41.1 0.718-0.131 1.44-0.263 2.18-0.398 53.7-9.6 108 9.59 150 42.1z" fill="#FCFDFF"/>
<path transform="translate(557,545)" d="m0 0c8.44 8.81 14.4 19.8 19 31h2c0.45-1.02 0.9-2.03 1.36-3.08 8.55-18.6 21.3-30.4 40.6-37.9 0.752-0.296 1.5-0.593 2.28-0.898 19.6-6.76 42.4-5.17 61 3.4 15.4 7.74 28.9 21.3 34.6 37.9 2.04 6.76 2.66 13 2.55 20-0.0174 1.51-0.0174 1.51-0.0352 3.06-0.335 15.3-5.12 27.9-15.3 39.5-16.5 14.6-33.4 20.6-55.4 20.4-1.95 0.0174-1.95 0.0174-3.95 0.0352-12-0.036-23.5-1.69-34.4-7.1-0.715-0.348-1.43-0.696-2.17-1.05-14.8-7.45-25.7-19.4-31.5-34.9-0.206-0.763-0.413-1.53-0.625-2.31-0.231 0.534-0.461 1.07-0.699 1.62-1.08 2.47-2.19 4.93-3.3 7.38-0.351 0.804-0.701 1.61-1.06 2.44-7.35 15.9-19.8 26.4-35.9 32.6-16.3 3.91-35.2 2.39-49.6-6.19-0.764-0.509-1.53-1.02-2.32-1.54-2.31-1.52-2.31-1.52-6.12-2.27v69c-6.72 0.0619-13.4 0.124-20.4 0.188-2.12 0.0273-4.24 0.0546-6.43 0.0828-1.68 0.00876-3.35 0.0164-5.03 0.0227-0.875 0.0153-1.75 0.0307-2.65 0.0465-0.832 3.63e-4 -1.66 7.25e-4 -2.52 0.0011-1.09 0.00999-1.09 0.00999-2.19 0.0202-1.8-0.361-1.8-0.361-3.8-3.36-0.249-2.49-0.249-2.49-0.247-5.52-0.00419-1.15-0.00839-2.3-0.0127-3.48 0.00562-1.26 0.0112-2.53 0.017-3.83-0.00107-1.34-0.00301-2.69-0.00575-4.03-0.00486-3.66 0.00283-7.33 0.013-11 0.00882-3.87 0.00702-7.73 0.00664-11.6 9.39e-4 -6.52 0.00963-13 0.0233-19.6 0.0155-7.45 0.021-14.9 0.0203-22.4-6.88e-4 -8.01 0.00635-16 0.0154-24 0.00209-2.26 0.00284-4.52 0.00324-6.78 0.0055-15.5 0.112-31 0.497-46.5 0.037-1.52 0.0708-3.04 0.102-4.56 0.0437-2.1 0.1-4.19 0.161-6.29 0.0304-1.2 0.0607-2.39 0.092-3.62 0.316-2.8 0.316-2.8 2.32-4.8 9.19-1.3 18.7-1.09 27.9-1.12 0.977-0.00467 1.95-0.00935 2.96-0.0142 0.908 0.00209 1.82 0.00419 2.75 0.00635 1.22 0.00169 1.22 0.00169 2.47 0.00342 1.88 0.129 1.88 0.129 2.88 1.13 0.232 1.51 0.412 3.04 0.562 4.56 0.0838 0.826 0.168 1.65 0.254 2.5 0.0606 0.638 0.121 1.28 0.184 1.93 4.09 0 6.42-2.09 9.69-4.31 22-14.5 49.5-12.1 69.3 5.31z" fill="#FCFDFF"/>
<path transform="translate(538 672)" d="m0 0c1.26 0.00281 1.26 0.00281 2.54 0.00568 1.77 0.00672 3.53 0.0206 5.3 0.0412 2.71 0.0312 5.43 0.041 8.14 0.0469 1.71 0.00917 3.43 0.0195 5.14 0.0312 0.817 0.00425 1.63 0.0085 2.47 0.0129 5.71 0.0731 5.71 0.0731 6.83 1.19 0.0978 2.59 0.13 5.16 0.12 7.75 0.00128 1.23 0.00128 1.23 0.00259 2.49 0.00166 2.77-0.00387 5.55-0.00932 8.32-2.82e-4 1.98-1.24e-4 3.96 4.43e-4 5.94 2.88e-4 5.39-0.00561 10.8-0.0126 16.2-0.00623 5.63-0.00684 11.3-0.00803 16.9-0.00311 10.7-0.0113 21.3-0.0213 32-0.0112 12.1-0.0167 24.3-0.0217 36.4-0.0105 25-0.0281 50-0.0503 75-5.82 0.0246-11.6 0.0428-17.5 0.0549-1.98 0.00504-3.96 0.0119-5.95 0.0205-2.84 0.0121-5.68 0.0178-8.53 0.0222-1.34 0.00774-1.34 0.00774-2.7 0.0156-2.12 1.95e-4 -4.24-0.0512-6.36-0.113-1.97-1.97-1.66-5.35-2-8-3.44 2.04-3.44 2.04-6.8 4.21-13.1 8.66-28.5 9.3-43.8 7.33-16.9-3.83-29.8-13.6-39-28-9.76-17.5-10.7-37.4-5.41-56.5 5.27-14.7 15.3-28.3 29-36 14.8-6.6 32.9-9.37 48.8-4.5 4.25 1.87 8.15 4.2 12.1 6.66 0.596 0.37 1.19 0.741 1.81 1.12 1.46 0.905 2.91 1.81 4.36 2.72-0.00999-1.64-0.00999-1.64-0.0202-3.32-0.0608-10.3-0.106-20.6-0.135-30.9-0.0157-5.3-0.0369-10.6-0.0709-15.9-0.0325-5.12-0.0505-10.2-0.0583-15.3-0.00555-1.95-0.0164-3.91-0.0326-5.86-0.0217-2.73-0.0248-5.46-0.0234-8.2-0.0108-0.812-0.0216-1.62-0.0327-2.46 0.03-5.42 0.03-5.42 1.66-7.96 3.14-1.82 6.76-1.38 10.3-1.32z" fill="#FCFDFF"/>
<path transform="translate(1195 709)" d="m0 0c0.845 0.00202 1.69 0.00405 2.56 0.00613 1.29-0.00144 1.29-0.00144 2.61-0.0029 1.83-6.82e-4 3.65 0.00117 5.48 0.00534 2.8 0.00535 5.61 5.51e-5 8.41-0.00635 1.77 6.61e-4 3.54 0.00194 5.31 0.00391 0.845-0.00202 1.69-0.00405 2.56-0.00613 5.92 0.024 5.92 0.024 7.03 1.14 0.16 3.1 0.26 6.18 0.316 9.29 0.0208 0.931 0.0416 1.86 0.063 2.82 0.0656 2.99 0.124 5.97 0.183 8.96 0.0432 2.02 0.0868 4.04 0.131 6.06 0.107 4.96 0.209 9.92 0.307 14.9 1.31 0.049 2.63 0.098 3.98 0.148 1.74 0.0751 3.47 0.151 5.21 0.227 1.3 0.0464 1.3 0.0464 2.62 0.0938 0.841 0.0387 1.68 0.0773 2.55 0.117 0.77 0.0314 1.54 0.0628 2.33 0.0952 2.31 0.319 2.31 0.319 7.31 2.32v31c-11.4 0.437-11.4 0.437-15 0.568-0.931 0.0381-1.86 0.0762-2.82 0.115-0.958 0.0367-1.92 0.0733-2.9 0.111-2.2-0.0363-2.2-0.0363-3.22 1.21-0.103 1.39-0.138 2.79-0.145 4.18-0.00638 0.888-0.0128 1.78-0.0193 2.69-0.00111 0.967-0.00223 1.93-0.00337 2.93-0.00333 0.988-0.00666 1.98-0.0101 2.99-0.00507 2.1-0.00741 4.19-0.00725 6.29-0.00218 3.21-0.0203 6.41-0.0393 9.62-0.00293 2.03-0.00492 4.07-0.00586 6.1-0.0108 1.44-0.0108 1.44-0.0218 2.91 0.00308 0.897 0.00615 1.79 0.00932 2.72-0.00143 0.788-0.00285 1.58-0.00432 2.39 0.28 2.47 0.957 4.07 2.25 6.18 3.37 2.47 6.22 2.06 10.2 1.62 1.08-0.111 2.16-0.222 3.27-0.336 1.23-0.143 1.23-0.143 2.48-0.289 2.21 3.43 3.64 6.57 4.75 10.5 0.297 1.02 0.594 2.03 0.9 3.08 0.61 2.14 1.22 4.28 1.83 6.41 0.296 1.01 0.592 2.02 0.896 3.07 0.264 0.927 0.527 1.85 0.799 2.81 0.613 2.32 0.613 2.32 2.82 3.15v5c-1.64 0.633-3.29 1.26-4.94 1.88-1.37 0.522-1.37 0.522-2.78 1.05-13 4.23-30.3 6.18-43 0.32-0.741-0.413-1.48-0.825-2.25-1.25-1.19-0.619-1.19-0.619-2.4-1.25-9.14-5.35-13.9-13.7-16.6-23.8-0.572-3.01-0.878-6.01-1.12-9.06-0.0778-0.89-0.156-1.78-0.236-2.7-1.29-16.7-1.34-33.5-1.64-50.2-0.987-0.0606-1.97-0.121-2.99-0.184-1.92-0.126-1.92-0.126-3.88-0.254-1.91-0.122-1.91-0.122-3.87-0.246-3.26-0.316-3.26-0.316-5.26-1.32-0.33-5.61-0.66-11.2-1-17-3.39 4.15-3.39 4.15-5.92 8.55-0.303 0.616-0.606 1.23-0.918 1.87-0.3 0.626-0.601 1.25-0.91 1.9-0.316 0.645-0.632 1.29-0.957 1.96-0.77 1.57-1.53 3.15-2.29 4.73-4.51-0.887-8.85-1.85-13.1-3.56-7.13-2.79-14.8-3.2-22.2-1.81-2.93 1.19-2.93 1.19-4 4.5-0.206 0.949-0.412 1.9-0.625 2.88 3.68 3.26 6.97 4.95 11.6 6.5 1.24 0.425 2.47 0.851 3.75 1.29 2.19 0.73 4.37 1.46 6.56 2.17 13.5 4.59 22.7 10.9 30 23.4 3.73 9.45 3.8 23.9 0.293 33.4-6.52 11.9-16.5 16.7-28.9 20.4-21.1 5.08-45.1 2.82-64.3-7.2-2.83-1.84-5.46-3.78-8-6 1.61-6.23 5.01-11.3 8.38-16.8 0.578-0.958 1.15-1.92 1.75-2.9 0.565-0.914 1.13-1.83 1.71-2.77 0.511-0.831 1.02-1.66 1.55-2.52 1.75-2.23 2.92-3.21 5.62-4.06 2.88 1.41 2.88 1.41 6.12 3.62 8.69 5.67 16.3 9.69 26.9 8.38 2.98-0.851 2.98-0.851 5-2 0.136-1.41 0.232-2.83 0.312-4.25 0.087-1.18 0.087-1.18 0.176-2.39-0.309-2.53-0.309-2.53-2.45-4.43-3.85-2.43-7.77-3.95-12-5.49-12.4-4.53-26.7-12.1-33.1-24.2-3.6-9.22-3.39-18 0.141-27.2 4.63-9.52 13-17.3 22.9-21.1 1.01-0.327 2.02-0.655 3.06-0.992 1.01-0.333 2.02-0.665 3.06-1.01 20.1-5.92 43.2-2.34 61.9 6.13 0.186-0.959 0.186-0.959 0.375-1.94 0.206-0.681 0.412-1.36 0.625-2.06 2.83-1.42 5.47-1.35 8.62-1.56 1.19-0.0838 2.38-0.168 3.6-0.254 0.915-0.0606 1.83-0.121 2.77-0.184 0.173-3.33 0.338-6.67 0.5-10 0.0484-0.996 0.0968-1.99 0.147-3.02 0.331-7.27 0.384-14.5 0.193-21.8 0.373-7.49 1.97-9.32 9.19-9.35z" fill="#FBFCFE"/>
<path transform="translate(840,763)" d="m0 0c1.8 1.94 3.4 3.88 5 6 4.48-0.489 6.32-1.94 9.44-5.12 11-10.4 22.9-13.4 37.6-13.2 11.5 0.443 23.3 4.99 31.2 13.5 10.3 13.3 9.97 27.6 9.88 43.5-0.00374 1.91-0.00658 3.83-0.00858 5.74-0.00759 5.01-0.0272 10-0.0494 15-0.0206 5.12-0.0296 10.2-0.0397 15.4-0.0214 10-0.0555 20.1-0.0977 30.1-5.82 0.0246-11.6 0.0428-17.5 0.0549-1.98 0.00504-3.96 0.0119-5.95 0.0205-2.84 0.0121-5.68 0.0178-8.53 0.0222-1.34 0.00774-1.34 0.00774-2.7 0.0156-2.12 1.95e-4 -4.24-0.0512-6.36-0.113-1.85-1.85-1.14-4.92-1.16-7.4-0.00508-0.668-0.0102-1.34-0.0154-2.03-0.0107-1.46-0.0193-2.91-0.0261-4.37-0.0118-2.31-0.0312-4.63-0.0531-6.94-0.0616-6.58-0.115-13.2-0.149-19.7-0.0211-4.02-0.0565-8.04-0.101-12.1-0.0141-1.53-0.0229-3.06-0.0261-4.58 0.0239-13.9 0.0239-13.9-5.72-26.3-4.06-3.88-7.68-5.4-13.2-6-6.75 0.723-11.1 3.26-15.5 8.38-5.93 7.84-4.21 19.5-4.32 28.9-0.0206 1.54-0.0416 3.07-0.063 4.61-0.0549 4.02-0.104 8.04-0.153 12.1-0.0505 4.11-0.106 8.22-0.161 12.3-0.107 8.05-0.209 16.1-0.307 24.1-5.5 0.0494-11 0.0857-16.5 0.11-1.87 0.0101-3.74 0.0237-5.61 0.041-2.69 0.0242-5.38 0.0356-8.06 0.0444-0.838 0.0103-1.68 0.0206-2.54 0.0313-5.94 0.00115-5.94 0.00115-9.29-2.23-0.432-1.93-0.432-1.93-0.512-4.37-0.0531-1.42-0.0531-1.42-0.107-2.87-0.0226-1.06-0.0453-2.11-0.0686-3.2-0.0349-1.11-0.0698-2.21-0.106-3.35-0.206-7.74-0.218-15.5-0.191-23.2 0.00279-0.955 0.00559-1.91 0.00847-2.89 0.0163-4.81 0.0468-9.61 0.1-14.4 0.0122-1.8 0.0241-3.6 0.0359-5.4 0.0135-0.817 0.027-1.63 0.041-2.48 0.0384-8.97-1.95-15.4-7.58-22.5-4.35-3.34-9.33-3.71-14.6-3.25-5.2 1.7-8.53 3.76-12 8-3.21 6.43-4.12 11.9-4.21 19-0.0099 0.683-0.0198 1.37-0.03 2.07-0.0314 2.25-0.0563 4.49-0.0811 6.74-0.0206 1.56-0.0416 3.12-0.063 4.69-0.0551 4.1-0.105 8.2-0.153 12.3-0.0503 4.19-0.106 8.38-0.161 12.6-0.107 8.21-0.209 16.4-0.307 24.6-5.18 0.0495-10.4 0.0858-15.5 0.11-1.76 0.01-3.52 0.0237-5.28 0.041-2.53 0.0243-5.07 0.0356-7.6 0.0444-0.784 0.0103-1.57 0.0206-2.37 0.0313-4.25 8.68e-4 -7.34-0.532-11.2-2.23-0.0467-15.2-0.082-30.4-0.104-45.7-0.0103-7.07-0.0244-14.1-0.0473-21.2-0.022-6.81-0.0337-13.6-0.0389-20.4-0.00371-2.61-0.0109-5.21-0.0217-7.82-0.0144-3.64-0.0165-7.27-0.0156-10.9-0.00719-1.09-0.0144-2.17-0.0218-3.29 0.00275-0.987 0.0055-1.97 0.00833-2.99-0.00184-0.861-0.00369-1.72-0.00559-2.61 0.246-2.07 0.246-2.07 2.25-4.07 2.51-0.27 4.91-0.422 7.42-0.484 1.11-0.0362 1.11-0.0362 2.24-0.0731 1.56-0.0483 3.13-0.0917 4.69-0.131 2.38-0.0614 4.76-0.145 7.14-0.23 1.52-0.0443 3.04-0.0873 4.56-0.129 0.706-0.0259 1.41-0.0518 2.14-0.0786 4.35-0.0885 7.78 0.518 11.8 2.13 0.495 3.96 0.495 3.96 1 8 3.71 0 4.49-0.943 7.38-3.19 18.9-13.6 45.4-13.4 62.6 3.19z" fill="#FCFDFF"/>
<path transform="translate(1064,546)" d="m0 0c0.709 0.504 1.42 1.01 2.15 1.53 11.4 8.91 19.1 24.1 21.5 38.2 1.98 19.1-2.2 35.6-14.1 50.8-0.75 0.766-0.75 0.766-1.52 1.55h-2c-0.495 1.49-0.495 1.49-1 3-15 13.4-32.8 17.5-52.4 17.4-1.95 0.0174-1.95 0.0174-3.95 0.0352-12-0.036-23.5-1.69-34.4-7.1-0.715-0.348-1.43-0.696-2.17-1.05-13.2-6.65-23.3-16.6-29.1-30.3-0.296-0.645-0.593-1.29-0.898-1.95-6.42-15.1-4.7-32 1.09-46.9 4.11-9.52 9.63-16.8 17.8-23.1 0.847-0.67 1.69-1.34 2.57-2.03 9.31-7.1 19-11.5 30.4-14 1.07-0.229 2.15-0.459 3.25-0.695 22.7-3.94 44.2 1.3 62.7 14.7z" fill="#FCFDFF"/>
<path transform="translate(649 751)" d="m0 0c1.86-0.0242 1.86-0.0242 3.75-0.0488 11.2-0.0059 21.1 1.89 31.1 7.11 1.02 0.526 1.02 0.526 2.06 1.06 15.7 8.32 26.9 21.4 32.3 38.5 4.63 17 1.95 34.7-6.01 50.1-1.37 2.37-2.71 4.53-4.5 6.59h-2c-0.26 0.592-0.521 1.18-0.789 1.79-5.43 9.9-19 15.7-29.2 19.4-9.16 2.47-18 3.16-27.4 3.14-1.13 0.0161-2.26 0.0322-3.42 0.0488-20.8 0.0119-39.8-7.8-55-22-10.5-11.2-15.9-27.8-15.4-43 1.16-15.4 5.69-27.9 16.2-39.4 0.519-0.611 1.04-1.22 1.57-1.85 14.6-16.2 35.8-21.5 56.8-21.5z" fill="#FCFDFF"/>
<path transform="translate(1536 766)" d="m0 0c13.7 12.5 22.2 26.3 23.4 45 0.643 16.5-3.12 31.8-13.9 44.7-13.8 14.6-31.4 21.9-51.4 22.7-22.6 0.493-43.8-3.14-61.5-18.4-12.7-12.1-18.3-26.7-18.7-44.1 0.22-16 5.42-30.8 16.2-42.8 27.1-26.1 75.9-32.9 106-7.09z" fill="#FCFDFF"/>
<path transform="translate(1044 760)" d="m0 0c0.713 0.518 1.43 1.04 2.16 1.57 1.02 0.715 1.02 0.715 2.07 1.45 11.8 9.19 18.7 24.5 20.6 39 0.533 6.19 0.431 12.3 0.305 18.5-0.625-0.00229-1.25-0.00458-1.89-0.00694-17.1-0.0533-34.1 0.0921-51.2 0.379-3.36 0.0554-6.72 0.106-10.1 0.154-3.24 0.048-6.48 0.103-9.72 0.157-1.2 0.0167-2.41 0.0334-3.65 0.0506-1.1 0.0199-2.19 0.0399-3.32 0.0604-1.45 0.0233-1.45 0.0233-2.93 0.0471-2.16-0.083-2.16-0.083-3.19 1.16 0.322 5.47 1.45 8.82 5 13 9.89 7.65 18.8 7.97 31 7 6.47-1.43 11-5.35 15.9-9.71 2.14-1.29 2.14-1.29 4.45-1.23 3.54 1.23 6.74 2.93 10 4.75 1.33 0.733 2.66 1.46 4 2.2 0.635 0.348 1.27 0.697 1.93 1.06 2.17 1.15 4.39 2.14 6.64 3.12 3.12 1.81 3.12 1.81 4.03 4.12 0.165 4.55-2.62 6.8-5.45 10.1-13 13.6-29.1 20.1-47.8 20.8-23.7 0.507-41.2-4.68-58.8-21.3-12.6-13-16.3-29.3-16.1-46.8 0.657-17.6 10.1-31.1 22.3-43.1 21.7-20 59.1-23 83.8-6.61z" fill="#FCFDFF"/>
<path transform="translate(840 540)" d="m0 0c1.02 0.777 1.02 0.777 2.07 1.57 0.63 0.477 1.26 0.954 1.91 1.45 6.71 5.87 11.8 15.8 13.1 24.6 0.0881 2.86 0.126 5.69 0.114 8.55 1.46e-4 0.849 2.92e-4 1.7 4.43e-4 2.57-6.95e-4 2.8-0.00847 5.59-0.0163 8.39-0.00187 1.94-0.00329 3.89-0.00429 5.83-0.00381 5.11-0.0136 10.2-0.0247 15.3-0.0102 5.22-0.0148 10.4-0.0198 15.6-0.0107 10.2-0.0278 20.5-0.0488 30.7-5.82 0.0246-11.6 0.0428-17.5 0.0549-1.98 0.00504-3.96 0.0119-5.95 0.0205-2.84 0.0121-5.68 0.0178-8.53 0.0222-1.34 0.00774-1.34 0.00774-2.7 0.0156-2.12 1.95e-4 -4.24-0.0512-6.36-0.113-1.85-1.85-1.14-4.92-1.16-7.4-0.00508-0.668-0.0102-1.34-0.0154-2.03-0.0107-1.46-0.0193-2.91-0.0261-4.37-0.0118-2.31-0.0312-4.63-0.0531-6.94-0.0616-6.58-0.115-13.2-0.149-19.7-0.0211-4.02-0.0565-8.04-0.101-12.1-0.0141-1.53-0.0229-3.06-0.0261-4.58-0.0251-10.9-0.523-20-7.47-28.9-3.76-3.52-7.19-3.82-12.2-4.31-8.65 0.709-14.3 4.09-20.1 10.4-5.27 9.04-5.16 19.3-5.2 29.4-0.0169 1.46-0.035 2.93-0.0544 4.39-0.0471 3.82-0.0772 7.63-0.103 11.4-0.03 3.91-0.0765 7.82-0.121 11.7-0.0856 7.64-0.153 15.3-0.209 22.9-5.82 0.0246-11.6 0.0428-17.5 0.0549-1.98 0.00504-3.96 0.0119-5.95 0.0205-2.84 0.0121-5.68 0.0178-8.53 0.0222-1.34 0.00774-1.34 0.00774-2.7 0.0156-2.12 1.95e-4 -4.24-0.0512-6.36-0.113-1.61-1.61-1.13-3.32-1.13-5.55-0.00426-0.983-0.00853-1.97-0.0129-2.98 4.53e-4 -1.09 9.06e-4 -2.17 0.00137-3.29-0.00336-1.14-0.00672-2.28-0.0102-3.45-0.00954-3.78-0.0115-7.57-0.0125-11.4-0.00321-2.62-0.00657-5.23-0.0101-7.85-0.0064-5.49-0.00788-11-0.00725-16.5 6.01e-4 -6.36-0.00995-12.7-0.0257-19.1-0.0146-6.11-0.0182-12.2-0.0176-18.3-0.00118-2.6-0.00563-5.2-0.0133-7.81-0.00974-3.63-0.00694-7.26-8.95e-4 -10.9-0.00562-1.09-0.0112-2.17-0.017-3.29 0.00419-0.986 0.00839-1.97 0.0127-2.99-5.45e-4 -0.86-0.00109-1.72-0.00165-2.61 0.249-2.07 0.249-2.07 2.25-4.07 9.13-1.44 18.7-1.1 27.9-1.12 1.08-0.00467 2.15-0.00935 3.26-0.0142 1 0.00209 2.01 0.00419 3.04 0.00635 0.905 0.00113 1.81 0.00226 2.74 0.00342 2.08 0.129 2.08 0.129 3.08 1.13 0.233 1.68 0.413 3.37 0.562 5.06 0.0838 0.919 0.168 1.84 0.254 2.79 0.0606 0.71 0.121 1.42 0.184 2.15 2.7-1.6 5.35-3.23 7.98-4.94 19.3-12.4 42.5-12.7 62 0.367z" fill="#FCFDFF"/>
<path transform="translate(919,491)" d="m0 0c0.148 2.68 0.235 5.33 0.281 8.02 0.0184 0.808 0.0368 1.62 0.0558 2.45 0.0589 2.6 0.112 5.19 0.163 7.79 0.0678 3.4 0.142 6.8 0.219 10.2 0.0136 0.78 0.0272 1.56 0.0411 2.36 0.0887 3.91 0.467 7.32 1.24 11.2 7.59 0.33 15.2 0.66 23 1 1.46 2.92 1.11 5.5 1.1 8.76-0.00141 0.663-0.00283 1.33-0.00429 2.01-0.0056 2.12-0.0182 4.24-0.0309 6.36-0.00501 1.44-0.00958 2.87-0.0137 4.31-0.0102 3.52-0.0298 7.04-0.0488 10.6l-25 1c-0.0462 5.5-0.0859 11-0.11 16.5-0.00999 1.86-0.0236 3.73-0.041 5.59-0.935 14.8-0.935 14.8 2.15 28.9 5.34 2.77 9.68 1.96 15.4 0.312 0.536-0.103 1.07-0.206 1.62-0.312 2.84 2.84 3.39 6.23 4.44 10 0.44 1.55 0.88 3.09 1.32 4.64 0.212 0.75 0.423 1.5 0.642 2.27 0.966 3.36 2.04 6.69 3.12 10 0.557 2.41 0.562 4.61 0.48 7.08-1.15 0.619-2.31 1.24-3.5 1.88-0.975 0.522-0.975 0.522-1.97 1.05-7.55 3.19-14.7 3.44-22.8 3.45-1.06 0.0245-2.13 0.049-3.22 0.0742-11.7 0.0428-21-3.36-29.5-11.4-13.8-15-11.4-39.1-11.6-58-0.0383-2.24-0.0773-4.48-0.117-6.72-0.0949-5.43-0.179-10.9-0.258-16.3h-14c-2.4-6-2.37-10.8-2.38-17.1-0.0245-1.1-0.049-2.19-0.0742-3.32-0.00387-1.05-0.00773-2.1-0.0117-3.18-0.0123-1.44-0.0123-1.44-0.0249-2.9 0.486-2.46 0.486-2.46 2.09-4.29 3.18-1.56 5.61-1.47 9.14-1.36 1.76 0.0406 1.76 0.0406 3.55 0.082 0.892 0.0348 1.78 0.0696 2.7 0.105-0.0105-1.26-0.0209-2.52-0.0317-3.82-0.0361-4.67-0.0591-9.34-0.0781-14-0.0101-2.02-0.0237-4.05-0.041-6.07-0.0242-2.9-0.0356-5.81-0.0444-8.71-0.0103-0.908-0.0206-1.82-0.0313-2.75-1.51e-4 -0.841-3.02e-4 -1.68-4.58e-4 -2.55-0.00444-0.742-0.00888-1.48-0.0135-2.25 0.241-1.83 0.241-1.83 2.24-3.83 2.73-0.335 2.73-0.335 6.19-0.449 1.26-0.0432 2.51-0.0864 3.81-0.131 0.659-0.0175 1.32-0.035 2-0.053 1.97-0.0535 3.95-0.125 5.92-0.197 19.7-0.61 19.7-0.61 22.1 1.83z" fill="#FCFDFF"/>
<path transform="translate(221,580)" d="m0 0c4.22 3.5 6.2 6.58 7 12 0.133 3.24 0.113 6.47 0.0942 9.71-0.00279 2.02-0.00546 4.03-0.00803 6.05-0.00305 1.07-0.0061 2.13-0.00924 3.23-0.0114 5.65 0.00916 11.3 0.0246 17 0.0183 7.19 0.027 14.4-0.00195 21.6-0.0226 5.82-0.0111 11.6 0.023 17.4 0.00676 2.21 0.00111 4.42-0.0174 6.64-0.0242 3.1-0.00492 6.2 0.0241 9.3-0.0174 0.908-0.0348 1.82-0.0527 2.75 0.12 6.18 1.79 9.25 6.12 13.6 0.596 0.564 1.19 1.13 1.81 1.71 1.05 1.07 2.09 2.15 3.13 3.23 0.995 0.988 1.99 1.97 2.99 2.96 0.499 0.494 0.998 0.989 1.51 1.5 0.983 0.974 1.97 1.95 2.95 2.92 1.37 1.35 2.72 2.72 4.07 4.09 1.85 1.83 3.7 3.49 5.72 5.12 3.36 2.83 6.16 5.98 9.01 9.31 3.22 3.74 6.74 7 10.5 10.2 3.52 3.04 6.54 6.31 9.54 9.85 2.58 3 5.41 5.75 8.3 8.45 5.76 5.51 9.43 9.74 9.78 17.9-0.236 6.16-2.53 9.23-6.56 13.8-3.83 3.33-8.16 3.08-13 3.04-4.61-0.552-8.38-2.38-11.9-5.35-0.699-1.32-1.37-2.65-2-4-1.33-0.683-2.66-1.35-4-2-0.33-0.99-0.66-1.98-1-3-0.66-0.33-1.32-0.66-2-1-2-1-2-1-3-4-0.66-0.33-1.32-0.66-2-1-2-1-2-1-3-4-0.66-0.33-1.32-0.66-2-1-2-1-2-1-3-4-0.66-0.33-1.32-0.66-2-1-2-1-2-1-3-4-0.66-0.33-1.32-0.66-2-1-2-1-2-1-3-4-0.843-0.418-0.843-0.418-1.7-0.844-3.24-1.63-5.53-4.1-8.05-6.66-0.507-0.499-1.01-0.998-1.54-1.51-3.71-3.73-3.71-3.73-3.71-5.99-0.547-0.223-1.09-0.446-1.66-0.675-3.07-1.73-5.38-4.05-7.84-6.52-0.518-0.513-1.04-1.03-1.57-1.56-1.09-1.09-2.18-2.17-3.27-3.27-1.65-1.65-3.31-3.29-4.98-4.93-1.06-1.06-2.13-2.12-3.19-3.19-0.492-0.483-0.984-0.965-1.49-1.46-6.04-6.12-8.45-10.8-8.54-19.3 0.00967-1.01 0.0193-2.02 0.0293-3.06-0.0054-1.08-0.0108-2.16-0.0164-3.27-0.0125-3.56 4e-3 -7.12 0.022-10.7-1.55e-4 -2.48-0.00164-4.96-0.00441-7.45-0.00138-5.2 0.0112-10.4 0.034-15.6 0.0284-6.65 0.0257-13.3 0.0129-20-0.00697-5.12 8.42e-4 -10.2 0.0133-15.4 0.00451-2.45 0.00486-4.9 9.35e-4 -7.36-0.00292-3.43 0.0136-6.86 0.0354-10.3-0.0045-1.01-9e-3 -2.02-0.0136-3.05 0.0756-7.2 1.05-12.9 5.48-18.8 7.46-5.71 14.3-8 22.9-3.25z" fill="#FCFDFF"/>
<path transform="translate(1415,759)" d="m0 0c2 2 2 2 2.36 5.12-0.442 4.72-1.95 7.89-4.18 12-0.356 0.69-0.713 1.38-1.08 2.09-1.91 3.67-3.93 7.26-6.11 10.8-4.47-0.393-8.79-0.864-13.1-2.06-8.94-2.16-16.2-0.168-24.1 4.19-5.46 3.61-8.37 8.93-11.2 14.7-1.76 8.99-1.16 17.1 3.38 25.2 4.06 5.08 9.83 8.94 16 11 2.78 0.123 5.53 0.185 8.31 0.188 1.12 0.0184 1.12 0.0184 2.26 0.0371 4.56 0.012 8.12-0.554 12.4-2.22 1.33-0.35 2.66-0.691 4-1 3.45 5.18 6.45 10.5 9.31 16.1 0.362 0.672 0.723 1.34 1.1 2.04 2.32 4.56 2.98 7.79 2.59 12.9-19.3 7.61-40.7 12.3-61 5-0.978-0.329-1.96-0.657-2.96-0.996-17.1-6.35-30.9-19.9-38.6-36.3-5.22-13.4-5.78-29.2-0.777-42.8 8.29-18.3 21.3-32.1 39.6-40.4 19.3-6.89 44-6.42 61.7 4.48z" fill="#FCFDFF"/>
<path transform="translate(1272 753)" d="m0 0c0.816 0.00566 1.63 0.0113 2.47 0.0172 2.6 0.0223 5.2 0.0725 7.79 0.123 1.76 0.0201 3.53 0.0383 5.29 0.0547 4.32 0.044 8.64 0.113 13 0.195 1.22 2.45 1.12 4.02 1.12 6.76 0.00137 1 0.00275 2.01 0.00417 3.04-0.00539 1.66-0.00539 1.66-0.0109 3.35 1.46e-4 1.16 2.92e-4 2.32 4.43e-4 3.52-6.99e-4 3.85-0.00849 7.71-0.0163 11.6-0.00186 2.67-0.00334 5.33-0.00429 8-0.00311 6.31-0.0113 12.6-0.0213 18.9-0.0112 7.18-0.0167 14.4-0.0217 21.5-0.0105 14.8-0.0288 29.5-0.0503 44.3h-41c-1.13-9-1.13-9-1.15-13.1-0.00716-0.922-0.0143-1.84-0.0217-2.8-0.00269-0.984-0.00538-1.97-0.00815-2.98-0.00657-1.06-0.0131-2.12-0.0199-3.21-0.0196-3.48-0.0314-6.95-0.0414-10.4-0.00408-1.19-0.00815-2.38-0.0124-3.61-0.0208-6.29-0.0351-12.6-0.0445-18.9-0.0111-6.5-0.0456-13-0.0852-19.5-0.0261-5-0.0345-10-0.0381-15-0.00488-2.4-0.0165-4.79-0.035-7.19-0.0242-3.34-0.0235-6.69-0.0165-10-0.0128-0.992-0.0256-1.98-0.0388-3.01 0.0507-6.66 0.0507-6.66 2.3-9.94 3.41-2.13 6.81-1.87 10.7-1.77z" fill="#FCFDFF"/>
<path transform="translate(1596)" d="m0 0h4v1248h-3c-0.848-30.5-1.15-60.9-1.12-91.4 0.0035-6.19 0.00105-12.4-5.77e-4 -18.6-0.00205-10.8-4.99e-4 -21.6 0.00364-32.4 0.00441-11.6 0.00657-23.1 0.0061-34.7-2.87e-5 -0.736-5.74e-5 -1.47-8.69e-5 -2.23-1.56e-4 -3.75-3.48e-4 -7.5-5.53e-4 -11.3-0.0014-27 2e-3 -54 0.00802-81.1 0.00594-26.7 0.00978-53.4 0.0109-80.2 3.44e-5 -0.833 6.88e-5 -1.67 1.04e-4 -2.52 3.13e-4 -7.61 6.01e-4 -15.2 8.58e-4 -22.8 6.39e-4 -18.9 0.0016-37.8 0.00278-56.7 5.33e-5 -0.86 1.07e-4 -1.72 1.62e-4 -2.61 0.00262-41.8 0.00892-83.5 0.0155-125 0.00229-14.5 0.00457-29 0.00677-43.4 1.37e-4 -0.898 2.74e-4 -1.8 4.15e-4 -2.72 0.00635-41.8 0.0101-83.6 0.0131-125 1.98e-4 -2.72 3.97e-4 -5.43 5.97e-4 -8.15 0.00132-18 0.00259-36 0.00384-54 0.00248-35.8 0.00522-71.7 0.00814-107 1.39e-4 -1.71 2.78e-4 -3.41 4.17e-4 -5.12 0.00625-76.7 0.0156-153 0.0263-230 9.99e-5 -0.718 2e-4 -1.44 3.03e-4 -2.17 5e-3 -35.9 0.0102-71.8 0.0156-108z" fill="#FCFDFF"/>
<path transform="translate(664,791)" d="m0 0c5.61 4.35 10.1 10.1 11.4 17.2 0.152 2.28 0.165 4.51 0.118 6.8 0.0155 0.755 0.0309 1.51 0.0469 2.29-0.0474 6.9-2.17 12-6.7 17.2-0.735 0.632-1.47 1.26-2.23 1.91-0.73 0.647-1.46 1.29-2.21 1.96-6.78 4.68-14.5 4.36-22.4 3.66-7.39-1.76-14.1-5.5-18.3-12-3.94-7.46-4.74-14.6-2.66-22.9 2.21-6.82 6.31-11.9 11.7-16.5 10.9-5.45 20.6-5.94 31.2 0.375z" fill="#000002"/>
<path transform="translate(516,791)" d="m0 0c7.08 6.3 10.5 12.6 11.1 22.1 0.214 8.29-1.09 14.5-6.34 21.1-5.75 5.89-11.8 7.98-19.9 8.14-9.51 0.0102-16.2-2.7-23.1-9.2-4.79-5.84-6.43-13.3-6.04-20.7 1.21-9.41 5.6-15.9 13.1-21.8 9.98-6.28 21.3-5.34 31.2 0.383z" fill="#000002"/>
<path transform="translate(517 569)" d="m0 0c6.1 3.49 10.8 8.57 13.6 15 2.08 8.53 2.09 18.1-2 26-3.76 5.59-8.3 10.4-15 12-8.59 0.996-17.9 1.52-25-4-0.932-0.671-0.932-0.671-1.88-1.36-4.92-3.84-7.97-8.01-9.87-14-0.0825-0.866-0.165-1.73-0.25-2.62-0.0947-0.951-0.0947-0.951-0.191-1.92-0.434-7.9 1.95-15.5 6.69-21.9 8.93-9.27 22-12.4 33.9-7.19z" fill="#000002"/>
<path transform="translate(663 570)" d="m0 0c5.51 4.22 10.3 10 12.3 16.8 0.744 8.7 1.52 17.7-4 25-0.722 1.07-1.44 2.14-2.19 3.25-6.08 5.94-12.1 7.15-20.4 7.25-6.3-0.0761-11.4-0.588-16.4-4.5-0.621-0.436-1.24-0.871-1.88-1.32-5.63-4.31-8.68-9.77-10.1-16.7-0.589-8.55 1.18-16.6 6.55-23.5 9.53-10.1 23.8-13.4 36.2-6.29z" fill="#000002"/>
<path transform="translate(1029 570)" d="m0 0c6.73 4.6 11.6 11.9 13.6 19.7 1.38 9.18-0.213 16.8-5.55 24.3-2.93 3.32-6.07 5.44-10 7.32-0.99 0.495-0.99 0.495-2 1-2.89 0.179-5.73 0.278-8.62 0.312-0.782 0.029-1.56 0.058-2.37 0.0879-8.45 0.091-14.4-3.32-20.5-8.89-6-6.16-5.76-12.9-5.69-21.1 0.278-4.34 1.07-6.66 3.22-10.4 0.278-0.592 0.557-1.18 0.844-1.79 3.02-6.11 7.72-9.28 13.8-12 7.64-2.58 16.1-2.28 23.3 1.42z" fill="#000002"/>
<path transform="translate(1503 791)" d="m0 0c6.2 4.95 9.52 10.9 11.1 18.7 0.759 8.76-0.127 16.6-5.56 23.8-5.91 6.19-12.3 8.56-20.8 8.94-8.42-0.307-15.3-2.8-21.6-8.5-6.09-6.79-6.88-13.2-7-22.2 0.563-7.41 4.61-13.7 9.82-18.8 10.2-8.35 23-9.34 34.1-1.92z" fill="#000002"/>
<path transform="translate(1037,678)" d="m0 0c8.01 7.83 15.1 16.5 21 26-1.33 3.17-2.43 4.59-5.46 6.19-0.708 0.382-1.42 0.764-2.15 1.16-0.768 0.401-1.54 0.801-2.33 1.21-1.64 0.881-3.27 1.76-4.91 2.65-0.848 0.456-1.7 0.912-2.57 1.38-4.2 2.29-8.33 4.69-12.5 7.09-0.796 0.459-1.59 0.917-2.41 1.39-3.48 2.01-6.94 4.04-10.3 6.21-1.55 0.973-1.55 0.973-3.13 1.96-0.861 0.562-1.72 1.12-2.61 1.7-3.75 1.48-5.8 1.24-9.64 0.0469-2.28-1.98-3.89-4.25-5.56-6.75-0.462-0.621-0.924-1.24-1.4-1.88-1.99-2.86-3.17-4.57-2.6-8.09 1.78-2.6 3.53-4.16 6.06-6.03 3.62-2.77 7.08-5.61 10.4-8.69 4.31-3.93 8.78-7.62 13.3-11.3 3.62-3 7.09-6.15 10.6-9.33 1.99-1.77 4.03-3.38 6.19-4.95z" fill="#FCFDFF"/>
<path transform="translate(1297 685)" d="m0 0c5.06 4.75 8.49 9.12 9.09 16.2 0.0058 1.92 0.0058 1.92 0.0117 3.88 0.0168 1.28 0.0335 2.55 0.0508 3.87-0.642 6.52-3.72 10.7-8.34 15.1-4.82 3.69-10.9 5.18-16.9 4.89-7.99-1.31-14.9-5.19-20.1-11.3-3.37-5.46-3.89-11.7-3-18 2.31-7.24 7.27-13.8 14-17.4 9.03-3.98 17.6-3.68 25.2 2.7z" fill="#FCFDFF"/>
<path transform="translate(1014 779)" d="m0 0c6.33 2.78 10.6 6.77 13.3 13.2v5h-43c-1.11-3.34-1.03-3.77 0.375-6.81 2.65-5.04 6.75-7.49 11.6-10.2 0.647-0.375 1.29-0.75 1.96-1.14 4.97-2.1 10.7-1.56 15.8-0.0586z" fill="#000002"/>
</svg>
